<svg id="Layer_1" data-name="Layer 1" xmlns="http://www.w3.org/2000/svg" viewBox="0 0 500 86.03"><defs><style>.cls-1{fill:#06090b;}.cls-2{fill:#080b0d;}.cls-3{fill:#fdde00;}.cls-4{fill:#fff;}.cls-5{fill:#f89c1d;}</style></defs><title>Artboard 1</title><path class="cls-1" d="M15.88,8c5.31,0,9.84.62,14,3C38,15.52,39,31.67,29.54,34.24,39.6,37.68,41.09,51.56,32.89,58c-5.07,3.9-13,4.6-19.11,4.6H.36V8Zm-3,21c0,.07,2.89,0,6.32,0A5.58,5.58,0,0,0,24.7,23.4c0-3.59-3.12-5.62-6.08-5.62H12.84Zm0,22.23c0,.08,3.59.08,6.56.08a5.47,5.47,0,0,0,5.69-5.46,5.73,5.73,0,0,0-4.29-5.62c-2.18-.62-5.07-.55-8-.55Z"/><path class="cls-1" d="M56.06,8h11L88.12,62.64H75.25l-2.81-7.41H51.92l-2.5,7.41h-12ZM67,43.37,61.6,28.78,56.45,43.37Z"/><path class="cls-1" d="M120.1,8V20.51H105.67V62.64H93.26l-.08-42.13H78.75V8Z"/><path class="cls-1" d="M165.34,8V20.51H150.9V62.64H138.5l-.08-42.13H124V8Z"/><path class="cls-1" d="M202.07,8V20.28H181.71v9.44h19.82V42H181.71v8.42h20.36V62.64H169.23V8Z"/><path class="cls-1" d="M222.66,8c7,0,14.28-.47,19.66,5.54a20.56,20.56,0,0,1,5,12.79c0,6.4-1.71,10.77-5.54,14a21.31,21.31,0,0,1-5.15,3.35l10.77,19H233l-9-16.85c-1.56,0-3.11-.08-4.76-.08V62.64H206.74V8Zm-3.44,24.73h8.28a6.26,6.26,0,0,0,6.39-6.55A7.38,7.38,0,0,0,226.56,19h-7.34Z"/><path class="cls-1" d="M262.12,39.16S245.58,9.67,245,8h14c0,.15,9.37,16.62,9.37,16.62S277.73,8.18,277.73,8h14c-.54,1.64-17.08,31.13-17.08,31.13V62.64H262.12Z"/><path class="cls-2" d="M496.22,86.23l-5.09-23.74h6.09l-3.15-7.19a34.72,34.72,0,0,0,5.8-14.22c.05-.33.11-.67.15-1a34.61,34.61,0,0,0,.34-4.64A35.15,35.15,0,0,0,442.23,8.76L437,6.23c-6-2.88-12.68-5.55-21.32-5.55a26.63,26.63,0,0,0-15.18,4.61V.84H353.28V5.47C346.81.77,339.43.75,334.71.75h-26V69.84h26.86V65.66l.19.36,2,3.82h62.69v-4.2A34,34,0,0,0,415.85,70c.61,0,1.22,0,1.82,0,9.57,0,17.37-4,21.64-10.82a35.26,35.26,0,0,0,11.18,8.17c.08.05.22.11.35.17a34.29,34.29,0,0,0,4.24,1.58c.23.07.48.14.74.2a36.22,36.22,0,0,0,3.6.78c.42.07.82.14,1.24.19a32.74,32.74,0,0,0,9,0c.42,0,.83-.12,1.24-.19.86-.14,1.62-.33,2.37-.51Z"/><path class="cls-3" d="M351,40.33c3.82-3.28,5.54-7.65,5.54-14a20.56,20.56,0,0,0-5-12.79C346.13,7.48,338.88,8,331.86,8H315.94V62.64h12.48V45.71c1.64,0,3.2.08,4.76.08l9,16.85h14.44l-10.77-19A21.51,21.51,0,0,0,351,40.33Zm-14.28-7.65h-8.27V19h7.34a7.38,7.38,0,0,1,7.33,7.18A6.27,6.27,0,0,1,336.69,32.68Z"/><polygon class="cls-3" points="360.48 62.64 393.32 62.64 393.32 50.39 372.96 50.39 372.96 41.97 392.78 41.97 392.78 29.72 372.96 29.72 372.96 20.28 393.32 20.28 393.32 8.03 360.48 8.03 360.48 62.64"/><path class="cls-3" d="M417,28.47c-2.11-.86-5.77-2.73-4.06-6,1.17-2.18,3.83-2.26,7-1.09l8,3,5.85-11.7c-4.83-2.34-10.61-4.84-18.18-4.84-6.39,0-13,2.81-16.15,9-3.35,6.79-2.57,16.31,5.39,20.06,3.82,1.79,9.75,4.6,13.49,6.24s4.14,3.59,3.28,5.38-3.59,2.42-5.62,1.56c-5.07-2.1-9.36-3.82-14-6.16L396.82,55.7c8.51,4.06,11.08,6.63,19.43,7.1,7.18.39,15.14-2.11,18.18-9.75,1.87-4.92,1.4-11.47-1.87-15.61C429.83,33.85,422.49,30.73,417,28.47Z"/><path class="cls-3" d="M465.16,7.4a27.83,27.83,0,0,0-27.74,31.7c0,.28.08.55.12.82a28.05,28.05,0,0,0,16,20.93l.3.14a25.72,25.72,0,0,0,3.34,1.25l.64.17a28.6,28.6,0,0,0,2.81.61l1,.15a25.76,25.76,0,0,0,7.16,0l1-.15c.77-.13,1.52-.31,2.26-.5L455.81,46.35a16.38,16.38,0,0,1-1.25-1.25l-.28-.28h.05a14.65,14.65,0,0,1-3.68-9.41c0-7.69,6.85-14.67,14.51-15a15.79,15.79,0,0,1,13.43,9.8L488,51.55a27.83,27.83,0,0,0,4.82-11.62c0-.28.09-.55.12-.83a28.11,28.11,0,0,0,.28-3.69A28.09,28.09,0,0,0,465.16,7.4Z"/><polygon class="cls-3" points="487.23 71.97 479.54 54.94 484.89 54.94 476.54 35.9 462.84 35.9 472.19 48.59 463.84 48.59 487.23 71.97"/><path class="cls-4" d="M341.9,22.3a6.82,6.82,0,0,1,1.19,3.83,6.27,6.27,0,0,1-6.4,6.55H331v2.39h8.27a6.27,6.27,0,0,0,6.4-6.56A7.14,7.14,0,0,0,341.9,22.3Z"/><path class="cls-4" d="M334.47,10.33c6,0,12.15-.3,17.18,3.33a1.92,1.92,0,0,1-.13-.17C346.13,7.48,338.88,8,331.86,8H315.94V62.64h2.61V10.33Z"/><rect class="cls-4" x="375.58" y="29.72" width="17.2" height="2.38"/><rect class="cls-4" x="375.58" y="50.39" width="17.75" height="2.38"/><polygon class="cls-4" points="393.32 10.41 393.32 8.03 360.48 8.03 360.48 62.64 363.09 62.64 363.09 10.41 393.32 10.41"/><path class="cls-4" d="M419.64,30.85c4.1,1.7,9.24,3.88,12.71,6.37-2.86-3.49-10-6.54-15.32-8.75-.47-.19-1-.44-1.56-.73C416.24,29.28,418.26,30.29,419.64,30.85Z"/><path class="cls-4" d="M402.17,19.23c3.12-6.17,9.75-9,16.15-9a36.62,36.62,0,0,1,15.08,3.41l.48-1c-4.83-2.34-10.61-4.84-18.18-4.84-6.39,0-13,2.81-16.15,9s-2.61,14.63,3.55,18.91C399.48,31.17,399.61,24.41,402.17,19.23Z"/><path class="cls-4" d="M418.71,52.47c2,.85,4.76.15,5.62-1.56s.48-3.43-2.48-5a3.06,3.06,0,0,1-.14,2.59c-.86,1.72-3.59,2.42-5.62,1.56-5.07-2.1-9.36-3.82-14-6.16L396.82,55.7c1.1.52,2.09,1,3,1.49l4.9-10.89C409.34,48.64,413.64,50.36,418.71,52.47Z"/><path class="cls-4" d="M440,41.48A28,28,0,0,1,485.25,16,27.91,27.91,0,0,0,437.42,39.1c0,.28.08.55.12.82a28,28,0,0,0,10.17,17.36,28,28,0,0,1-7.55-15C440.11,42,440.07,41.76,440,41.48Z"/><path class="cls-5" d="M325.15,42.44V59.37h-9.21v3.27h12.48V45.71c1.11,0,2.16,0,3.22.06l-1.73-3.25C328.35,42.52,326.79,42.44,325.15,42.44Z"/><path class="cls-5" d="M328.42,19h7.34a7.27,7.27,0,0,1,3.34.88,7.58,7.58,0,0,0-6.61-4.15h-7.34V29.41h3.27Z"/><path class="cls-5" d="M351,40.33c3.82-3.28,5.54-7.65,5.54-14a20.56,20.56,0,0,0-5-12.79A15.09,15.09,0,0,0,349,11.27,20.49,20.49,0,0,1,353.24,23c0,6.4-1.72,10.77-5.54,14.05a21.51,21.51,0,0,1-5.15,3.35l10.77,19H340.41l1.74,3.27h14.44l-10.77-19A21.51,21.51,0,0,0,351,40.33Z"/><polygon class="cls-5" points="360.48 59.37 360.48 62.64 393.32 62.64 393.32 50.39 390.05 50.39 390.05 59.37 360.48 59.37"/><polygon class="cls-5" points="390.05 17.01 369.69 17.01 369.69 26.45 372.96 26.45 372.96 20.28 393.32 20.28 393.32 8.03 390.05 8.03 390.05 17.01"/><polygon class="cls-5" points="369.69 38.7 369.69 47.12 372.96 47.12 372.96 41.97 392.78 41.97 392.78 29.72 389.51 29.72 389.51 38.7 369.69 38.7"/><path class="cls-5" d="M415.16,39.87c-3.74-1.64-9.67-4.45-13.49-6.24a12.45,12.45,0,0,1-1.76-1.1,12.16,12.16,0,0,0,5,4.37c3.82,1.79,9.75,4.6,13.49,6.24a3.78,3.78,0,0,1,.35.17C418.59,42.12,417.59,40.93,415.16,39.87Z"/><path class="cls-5" d="M416.73,18.1c-3.2-1.17-5.86-1.09-7,1.09-1.42,2.72.86,4.47,2.89,5.47a3.2,3.2,0,0,1,.38-2.2c1.17-2.18,3.83-2.26,7-1.09l8,3,5.85-11.7c-1.26-.61-2.59-1.23-4-1.82l-5.13,10.25Z"/><path class="cls-5" d="M429.72,34.83c2.85,4.15,3.22,10.28,1.44,15-3,7.64-11,10.14-18.18,9.75-6.92-.39-9.91-2.24-15.56-5.16l-.6,1.33c8.51,4.06,11.08,6.63,19.43,7.1,7.18.39,15.14-2.11,18.18-9.75,1.87-4.92,1.4-11.47-1.87-15.61A13.46,13.46,0,0,0,429.72,34.83Z"/><path class="cls-5" d="M461.89,17.15c-7.66.32-14.51,7.3-14.51,15a14.65,14.65,0,0,0,3.68,9.41H451l.28.28a14.74,14.74,0,0,0,1.25,1.25l16.17,16.18c-.74.18-1.49.36-2.25.49l-1,.15a25.76,25.76,0,0,1-7.16,0l-1-.15c-.95-.16-1.89-.36-2.81-.61l-.64-.17a27.22,27.22,0,0,1-3.34-1.24l-.3-.15a28,28,0,0,1-6.32-4,28.17,28.17,0,0,0,9.59,7.32l.3.14a25.72,25.72,0,0,0,3.34,1.25l.64.17a28.6,28.6,0,0,0,2.81.61l1,.15a25.76,25.76,0,0,0,7.16,0l1-.15c.77-.13,1.52-.31,2.26-.5L455.81,46.35a16.38,16.38,0,0,1-1.25-1.25l-.28-.28h.05a14.65,14.65,0,0,1-3.68-9.41c0-7.69,6.85-14.67,14.51-15a14.69,14.69,0,0,1,8.12,3A15.44,15.44,0,0,0,461.89,17.15Z"/><path class="cls-5" d="M483.21,14.05a27.4,27.4,0,0,1,6.42,21.78c0,.28-.09.55-.13.83a27.51,27.51,0,0,1-3.74,9.91l2.19,5a27.83,27.83,0,0,0,4.82-11.62c0-.28.09-.55.12-.83a27.41,27.41,0,0,0-9.68-25Z"/><polygon class="cls-5" points="484.89 54.94 476.54 35.9 474.7 35.9 481.62 51.67 476.27 51.67 483.96 68.7 487.23 71.97 479.54 54.94 484.89 54.94"/></svg>